<svg xmlns="http://www.w3.org/2000/svg" xmlns:xlink="http://www.w3.org/1999/xlink" viewBox="0 0 212.37 340.16"><defs><style>.cls-1{fill:url(#未命名的渐变_30);}.cls-2{fill:#3e3a39;stroke:#4c4948;stroke-miterlimit:10;}.cls-3{fill:url(#未命名的渐变_27);}.cls-4{fill:#4c4948;}.cls-5{fill:url(#未命名的渐变_30-2);}</style><linearGradient id="未命名的渐变_30" x1="106.27" y1="-20.71" x2="168.01" y2="379.72" gradientUnits="userSpaceOnUse"><stop offset="0" stop-color="#efefef"/><stop offset="0.36" stop-color="#aaa8a8"/><stop offset="0.8" stop-color="#5d5958"/><stop offset="1" stop-color="#3e3a39"/></linearGradient><linearGradient id="未命名的渐变_27" x1="63.04" y1="78.46" x2="133.65" y2="175.05" gradientUnits="userSpaceOnUse"><stop offset="0" stop-color="#b5b5b6"/><stop offset="0.28" stop-color="#8d8989"/><stop offset="0.92" stop-color="#271c19"/><stop offset="0.94" stop-color="#231815"/></linearGradient><linearGradient id="未命名的渐变_30-2" x1="54.57" y1="-25.12" x2="1.55" y2="376.56" xlink:href="#未命名的渐变_30"/></defs><g id="图层_2" data-name="图层 2"><g id="图层_1-2" data-name="图层 1"><path class="cls-1" d="M210.92,331.36l-150.28,8.8V0L210.92,8.8a1.77,1.77,0,0,1,1.44,1.87V329.48A1.78,1.78,0,0,1,210.92,331.36Z"/><line class="cls-2" x1="138.53" y1="170.08" x2="212.36" y2="170.08"/><line class="cls-2" x1="138.53" y1="88.59" x2="212.36" y2="90.72"/><path class="cls-3" d="M125.83,170.08H74.43a1.76,1.76,0,0,1-1.58-1.89V88.59a1.69,1.69,0,0,1,1.58-1.84l51.4,1.48a1.77,1.77,0,0,1,1.53,1.89v78.11A1.72,1.72,0,0,1,125.83,170.08Z"/><polygon class="cls-4" points="60.64 340.16 55.86 339.16 55.86 1 60.64 0 60.64 340.16"/><path class="cls-5" d="M55.86,339.15,1.45,327.75A2.08,2.08,0,0,1,0,325.7V14.46A2.1,2.1,0,0,1,1.45,12.4L55.86,1Z"/><polygon class="cls-4" points="139.55 335.6 137.51 335.6 138.08 4.44 139.39 4.44 139.55 335.6"/></g></g></svg>